<svg xmlns="http://www.w3.org/2000/svg" width="15.362" height="12" viewBox="0 0 15.362 12"><g transform="translate(-0.148 -1.272)"><path d="M13.957,13.272H1.7A1.6,1.6,0,0,1,.148,11.636c0-.567.431-1.091,1.283-1.554l.018.026c.371-.268,1-.644,4.675-2.806a.485.485,0,1,1,.49.836C4.644,9.3,2.14,10.778,1.973,10.885l0,0a.667.667,0,0,1-.074.047c-.617.337-.78.61-.78.706A.63.63,0,0,0,1.7,12.3H13.957a.63.63,0,0,0,.583-.667c0-.191-.1-.278-.5-.518-.124-.076-.251-.151-.37-.238l-.066-.03c-1.927-1.007-5.32-3.179-5.324-3.166A1.2,1.2,0,0,1,7.892,6.7c.023-.457.564-.724.806-.775.462-.1,1.968-.525,1.968-1.848a1.869,1.869,0,0,0-3.737,0,.485.485,0,0,1-.969,0,2.838,2.838,0,0,1,5.675,0c0,1.363-1.049,2.433-2.735,2.8a.155.155,0,0,0-.024.011.184.184,0,0,0,.044.068c-.013.007,2.517,1.668,5.138,3.038.115.061.178.1.182.1.1.073.205.138.305.2a1.559,1.559,0,0,1,.964,1.348A1.6,1.6,0,0,1,13.957,13.272Z" fill="#585858" /></g></svg>