<svg xmlns="http://www.w3.org/2000/svg" width="17" height="12" viewBox="0 0 17 12"><g transform="translate(-23.75 -39.875)"><path d="M40.316,45.533H35.353V43.139c0-1.83-2.548-3.264-5.8-3.264s-5.8,1.434-5.8,3.264v3.948c0,1.83,2.548,3.264,5.8,3.264h8.81V51.44a.435.435,0,0,0,.434.435h1.52a.435.435,0,0,0,.434-.435V45.968A.435.435,0,0,0,40.316,45.533Zm-6.784,0a4.585,4.585,0,0,0,.953-.653v.653Zm-3.98-4.788c2.674,0,4.933,1.1,4.933,2.394s-2.259,2.394-4.933,2.394-4.933-1.1-4.933-2.394S26.878,40.745,29.551,40.745Zm-4.933,6.342V44.88A7.522,7.522,0,0,0,29.551,46.4h10.33v3.077H38.269V48.357a.434.434,0,1,0-.869,0v1.124H35.508V48.357a.434.434,0,1,0-.869,0v1.124H32.747V48.357a.434.434,0,1,0-.869,0v1.124H29.986V48.357a.434.434,0,1,0-.869,0V49.47C26.638,49.359,24.619,48.314,24.619,47.087ZM39.23,51v-.653h.651V51Z" fill="#585858"/><path class="a" d="M40.35,50.174c1.258,0,2.206-.586,2.206-1.364s-.948-1.364-2.206-1.364-2.206.586-2.206,1.364S39.092,50.174,40.35,50.174Zm0-1.869c.875,0,1.346.358,1.346.5s-.472.5-1.346.5S39,48.958,39,48.81,39.475,48.306,40.35,48.306Z" fill="#585858" transform="translate(-10.808 -5.681)"/></g></svg>