<svg id="ShoppingBagIcon" data-name="Camada 1" xmlns="http://www.w3.org/2000/svg" viewBox="4 4 635.14 800">
            
            <path class="cls-1"
              d="M634.66,540.45Q623.35,390.82,612.4,241.18c-3-41.32-33.44-77.84-73.7-88.25-19.93-5.16-40.28-3.15-60.44-2.92-9.36.1-13.3-1.66-13.42-12-.24-21.38-6.9-41.32-17-60.06C416.35,19.66,349.65-10.88,285.49,3.55,220.61,18.14,174,73.12,169.88,140.69c-.45,7.27-2,9.49-9.37,9.17-13.48-.58-27-.28-40.5,0a98.67,98.67,0,0,0-96.6,87.9c-2.15,19.72-3.24,39.56-4.72,59.35C12.79,375.45,8,453.92.8,532.17c-9.68,105.28,70.12,195.06,175.64,195.4,46.85.15,93.71,0,140.57,0v-.14c50,0,100.09,1.19,150.09-.25C564.48,724.4,642,637.18,634.66,540.45ZM234,141.45c3.73-40.86,37.87-74.7,78-76.62,43-2.07,80,26.49,87.8,67.83.44,2.34.39,4.76.86,7.08,1.55,7.68-1,10.39-9.23,10.21-24.58-.55-49.19-.2-73.78-.2-25,0-50-.15-75,.07C236.5,149.87,233.28,149.19,234,141.45Zm178,233c-27,22.9-58.65,34.11-94.13,34.17-79.81-.24-144.5-62.14-147.82-141.47-.91-21.56,11.69-37,30.77-37.77,18.41-.71,32,13.54,32.78,34.49,1.76,44.77,36.95,79.77,82,81.53,43.26,1.69,81-32,85.47-76.34.28-2.76.25-5.55.49-8.32,1.66-19.22,15.64-32.24,33.59-31.32,17.34.9,30.12,15,29.82,33.73C464.25,308.26,446.22,345.46,412,374.47Z" />
          </svg>