
<svg width="25" height="24" aria-labelledby="headerShoppingBasketIcon headerShoppingBasketDesc" viewBox="0 0 25 25" fill="none" xmlns="http://www.w3.org/2000/svg" class="icon-menu__ShoppingBasketIconUI-sc-47msp4-7 gUTOwY"><title>icone de cesta de compras do header</title><path fill-rule="evenodd" clip-rule="evenodd" d="M14.334 2.5l7.5 6.294h1.833a1 1 0 010 2h-.123l-1.492 11.362c-.14 1.058-1.001 1.971-2.283 1.971H4.901c-1.281 0-2.144-.913-2.283-1.971L1.123 10.794H1a1 1 0 110-2h1.833l7.5-6.294a2 2 0 014 0zm-2 2c.353 0 .684-.091.972-.252l5.417 4.546H5.944l5.418-4.546c.287.16.619.252.972.252zM3.14 10.794h18.386L20.07 21.895c-.018.133-.112.232-.3.232H4.901c-.188 0-.283-.1-.3-.232l-1.46-11.1zm14.86 2a1 1 0 00-1 1v6a1 1 0 102 0v-6a1 1 0 00-1-1zm-4.778 1a1 1 0 112 0v6a1 1 0 11-2 0v-6zm-2.778-1a1 1 0 00-1 1v6a1 1 0 102 0v-6a1 1 0 00-1-1zm-4.778 1a1 1 0 112 0v6a1 1 0 11-2 0v-6z" fill="#fff"></path></svg>