<?xml version="1.0" encoding="utf-8"?>
<!-- Generator: Adobe Illustrator 18.1.1, SVG Export Plug-In . SVG Version: 6.00 Build 0)  -->
<svg version="1.1" id="XMLID_1_" xmlns="http://www.w3.org/2000/svg" xmlns:xlink="http://www.w3.org/1999/xlink" x="0px" y="0px"
	 viewBox="0 0 268.653 60" enable-background="new 0 0 268.653 60" xml:space="preserve">
<g id="site-nav">
	<line id="Do_not_delete_1_" fill="none" x1="0" y1="0.0001" x2="0" y2="60.0001"/>
	<g id="Guides_1_">
	</g>
	<g id="logo_2_">
		<g>
			<path fill="#333333" d="M45.319,46.4919L35.7679,12.013h-2.7773L22.8299,46.4919h-3.5224v1.3548h8.1286v-1.3548h-3.2514
				l3.116-10.5672h8.3996l2.845,10.5672H35.497v1.3548h12.8703v-1.3548C48.3673,46.4919,45.3191,46.4919,45.319,46.4919z
				 M27.6393,34.5699l3.9966-13.6154l3.6579,13.6154C35.2937,34.5699,27.6393,34.5699,27.6393,34.5699z M0.002,12.013v1.3548h3.1837
				v33.1241H0.002v1.3548h13.5477v-1.3548H9.9595v-16.325h3.3869c2.4386,0,3.3869,2.7095,3.4547,5.7578h1.3548V23.0544h-1.3548
				c-0.0677,3.116-1.0838,5.7578-3.4547,5.7578H9.9595V13.3678h6.9093c3.3869,0,5.4191,4.0643,5.4191,8.8737h1.3548V12.013
				C23.6427,12.013,0.002,12.013,0.002,12.013z M50.8059,25.8316c0.5419,2.2354,2.0999,3.9288,4.132,4.9449
				c1.4225,0.7451,2.845,1.2193,4.403,1.8289c1.4225,0.6096,3.3869,1.1516,4.7417,1.8967c1.4902,0.8129,2.0999,1.8289,2.6418,3.1837
				c0.6096,1.4225,0.6774,2.7095,0.3387,4.2675c-0.4742,2.2354-1.4902,4.1998-3.5224,5.2836l-0.2032,0.0677
				c-1.0161,0.4064-2.0999,0.5419-3.1837,0.4064c-0.8129-0.1355-1.6935-0.4742-2.5063-0.9483
				c-0.8806-0.5419-1.6935-1.0838-2.3031-1.7612c-2.5063-2.6418-3.0482-6.1642-3.5901-8.5351h-1.287v11.3123h1.3548v-1.0161
				c0-0.4064,0.4742-0.6774,0.9483-0.4064c2.7095,1.6935,7.7222,2.7773,11.3801,1.8967c2.6418-0.8129,4.8094-1.8967,6.3674-4.403
				c1.3548-2.2354,2.1676-4.6062,2.0999-7.3158c-0.0677-3.7934-1.6935-6.5706-5.1481-8.3996
				c-2.3031-1.2193-5.1481-1.7612-7.4512-2.845c-1.558-0.7451-2.9805-1.6935-3.7256-3.2514
				c-1.2193-2.6418-0.9483-6.7739,1.6257-8.806c1.3548-1.0838,3.2515-1.0838,4.8772-0.9483
				c6.2319,1.0838,6.5029,8.1286,6.5706,10.9736h1.3548V13.0968l-2.9805-0.7451c-2.9128-0.6774-6.1642-1.8289-9.2802-0.9483
				c-3.3869,1.0161-5.8255,2.9128-7.1125,6.3674C50.1285,20.548,50.1285,23.1221,50.8059,25.8316z"/>
			<polygon fill="#333333" points="74.1079,12.1485 74.1079,13.5032 77.0884,13.5032 77.0884,46.4919 74.1079,46.4919 
				74.1079,47.8467 77.0884,47.8467 83.8623,47.8467 86.9105,47.8467 86.9105,46.4919 83.8623,46.4919 83.8623,30.6411 
				93.2779,30.6411 93.2779,46.4919 90.2974,46.4919 90.2974,47.8467 93.2779,47.8467 100.1195,47.8467 103.1,47.8467 
				103.1,46.4919 100.1195,46.4919 100.1195,13.5032 103.1,13.5032 103.1,12.1485 100.1195,12.1485 93.2779,12.1485 
				90.2974,12.1485 90.2974,13.5032 93.2779,13.5032 93.2779,29.2863 83.8623,29.2863 83.8623,13.5032 86.9105,13.5032 
				86.9105,12.1485 83.8623,12.1485 77.0884,12.1485 			"/>
			<polygon fill="#333333" points="105.2676,12.1485 105.2676,13.5032 108.7901,13.5032 108.7901,46.4919 105.2676,46.4919 
				105.2676,47.8467 108.7901,47.8467 115.6316,47.8467 118.6121,47.8467 118.6121,46.4919 115.6316,46.4919 115.6316,13.5032 
				118.6121,13.5032 118.6121,12.1485 115.6316,12.1485 108.7901,12.1485 			"/>
			<polygon fill="#333333" points="179.5768,12.013 179.5768,13.3678 182.625,13.3678 182.625,46.4919 179.5768,46.4919 
				179.5768,47.8467 182.625,47.8467 189.3989,47.8467 192.3794,47.8467 192.3794,46.4919 189.3989,46.4919 189.3989,13.3678 
				192.3794,13.3678 192.3794,12.013 189.3989,12.013 182.625,12.013 			"/>
			<path fill="#333333" d="M208.9076,48.3886C208.9753,48.3208,209.0431,48.3208,208.9076,48.3886z M217.9168,13.3678v8.8737h1.3548
				c0-4.8094,2.0322-8.8737,5.4191-8.8737h2.4386v33.1241h-3.5224v1.3548h13.8864v-1.3548h-3.5224V13.3678h2.4386
				c3.3869,0,5.4191,4.0643,5.4191,8.8737h1.3548V12.013h-25.4019v1.3548H217.9168z"/>
			<polygon fill="#333333" points="150.8557,12.2162 150.8557,13.571 153.7007,13.571 153.7007,46.4242 151.1944,46.4242 
				151.1944,47.7789 153.9039,47.7789 155.2587,47.7789 157.9005,47.7789 157.9005,46.4242 155.2587,46.4242 155.2587,16.2805 
				171.4482,47.8467 175.1061,47.8467 175.1061,13.3678 177.4769,13.3678 177.4769,12.013 174.8351,12.013 173.4803,12.013 
				170.7708,12.013 170.7708,13.3678 173.4803,13.3678 173.4803,38.5665 160.0004,12.2162 153.9039,12.2162 			"/>
			<path fill="#333333" d="M140.8304,29.7605"/>
			<path fill="#333333" d="M134.8694,11.6066c-7.9931,0-14.4283,5.8933-14.4283,18.2894c0,12.1929,6.4352,18.2894,14.4283,18.2894
				s14.4283-5.7578,14.4283-18.2894C149.2977,17.4321,142.7948,11.6066,134.8694,11.6066z M134.8694,47.1693
				c-3.9966,0-7.248-5.7578-7.248-17.2733c0-11.7188,3.2515-17.2733,7.248-17.2733s7.248,5.4868,7.248,17.2733
				C142.1174,41.7502,138.866,47.1693,134.8694,47.1693z M265.6725,46.4919l-9.6189-34.4112h-2.7773l-10.1608,34.4112h-3.5224
				v1.3548h8.1286v-1.3548h-3.2514l3.116-10.5672h8.3996l2.845,10.5672h-3.0482v1.3548h12.8703v-1.3548H265.6725z M247.9927,34.5699
				l3.9966-13.6154l3.6579,13.6154H247.9927z M195.2921,25.8316c0.5419,2.2354,2.0999,3.9288,4.132,4.9449
				c1.4225,0.7451,2.845,1.2193,4.403,1.8289c1.4225,0.6096,3.3869,1.1516,4.7417,1.8967c1.4902,0.8129,2.0999,1.8289,2.6418,3.1837
				c0.6096,1.4225,0.6774,2.7095,0.3387,4.2675c-0.4742,2.2354-1.4903,4.1998-3.5224,5.2836l-0.2032,0.0677
				c-1.0161,0.4064-2.0999,0.5419-3.1837,0.4064c-0.8129-0.1355-1.6935-0.4742-2.5063-0.9483
				c-0.8806-0.5419-1.6935-1.0838-2.3031-1.7612c-2.5063-2.6418-3.0482-6.1642-3.5901-8.5351h-1.287v11.3123h1.3548v-1.0161
				c0-0.4064,0.4742-0.6774,0.9483-0.4064c2.7095,1.6935,7.7222,2.7773,11.3801,1.8967c2.6418-0.8129,4.8094-1.8967,6.3674-4.403
				c1.3548-2.2354,2.1676-4.6062,2.0999-7.3158c-0.0677-3.7934-1.6935-6.5706-5.1481-8.3996
				c-2.3031-1.2193-5.1481-1.7612-7.4512-2.845c-1.558-0.7451-2.9805-1.6935-3.7256-3.2514
				c-1.2193-2.6418-0.9483-6.7739,1.6257-8.806c1.3548-1.0838,3.2514-1.0838,4.8772-0.9483
				c6.2319,1.0838,6.5029,8.1286,6.5706,10.9736h1.3548V13.0968l-2.9805-0.7451c-2.9128-0.6774-6.1642-1.8289-9.2802-0.9483
				c-3.3869,1.0161-5.8255,2.9128-7.1125,6.3674C194.6825,20.548,194.6825,23.1221,195.2921,25.8316z"/>
		</g>
	</g>
</g>
<g>
</g>
</svg>
