<svg width="37" height="24" viewBox="0 0 37 24" fill="none" xmlns="http://www.w3.org/2000/svg">
<g clip-path="url(#clip0_12200_59494)">
<path fill-rule="evenodd" clip-rule="evenodd" d="M0.325684 1.71429C0.325684 0.767511 1.0932 0 2.03997 0H35.1828C36.1296 0 36.8971 0.767512 36.8971 1.71429V22.2857C36.8971 23.2325 36.1296 24 35.1828 24H2.03997C1.0932 24 0.325684 23.2325 0.325684 22.2857V1.71429Z" fill="#1A1A1A"/>
<path fill-rule="evenodd" clip-rule="evenodd" d="M0.325684 1.5C0.325684 0.671573 0.997257 0 1.82568 0H30.8257C31.6541 0 32.3257 0.671573 32.3257 1.5V19.5C32.3257 20.3284 31.6541 21 30.8257 21H1.82568C0.997257 21 0.325684 20.3284 0.325684 19.5V1.5Z" fill="#E5E5E5" fill-opacity="0.01"/>
<path d="M10.549 9.56497C10.813 9.47962 11.0946 9.43411 11.3867 9.43411C12.6655 9.43411 13.7331 10.3149 13.9771 11.4859L15.7898 11.1274C15.3744 9.13823 13.5607 7.64062 11.3867 7.64062C10.8881 7.64062 10.4106 7.71915 9.9624 7.86481L10.549 9.56497Z" fill="#FFCB05"/>
<path d="M8.41032 15.2609L9.63633 13.9169C9.08961 13.4469 8.74469 12.7607 8.74469 11.9959C8.74469 11.2324 9.08961 10.5461 9.63633 10.0773L8.41032 8.73218C7.48114 9.53105 6.89453 10.6975 6.89453 11.9959C6.89453 13.2955 7.48114 14.462 8.41032 15.2609Z" fill="#00A4E0"/>
<path d="M13.9771 12.5111C13.7319 13.681 12.6655 14.5606 11.3879 14.5606C11.0946 14.5606 10.8118 14.5151 10.549 14.4286L9.9624 16.1311C10.4106 16.2756 10.8892 16.3541 11.3879 16.3541C13.5595 16.3541 15.3721 14.8588 15.7898 12.8719L13.9771 12.5111Z" fill="#EF4123"/>
<path d="M17.3741 13.975C17.3143 13.8816 17.2345 13.7326 17.1852 13.6222C16.8978 12.9758 16.8849 12.3067 17.1265 11.6648C17.3929 10.9604 17.902 10.4221 18.5602 10.1467C19.3873 9.80193 20.3013 9.86908 21.0944 10.3254C21.5977 10.6054 21.9543 11.0378 22.2253 11.65C22.2594 11.7286 22.2899 11.8116 22.3204 11.8833L17.3741 13.975ZM19.026 11.1857C18.4382 11.4304 18.1355 11.9653 18.1989 12.5912L20.6861 11.5522C20.2579 11.0651 19.7018 10.9035 19.026 11.1857ZM20.9958 13.4458C20.9946 13.4458 20.9946 13.4469 20.9946 13.4469L20.943 13.4128C20.794 13.6461 20.5629 13.8361 20.2708 13.959C19.7147 14.1935 19.1996 14.1331 18.8289 13.8179L18.7949 13.868C18.7949 13.868 18.7949 13.8668 18.7937 13.8668L18.1625 14.7829C18.3197 14.8888 18.4875 14.9775 18.6635 15.0492C19.3603 15.3303 20.0737 15.3167 20.7764 15.0208C21.2844 14.8068 21.6833 14.4814 21.9555 14.0683L20.9958 13.4458Z" fill="white"/>
<path d="M24.0493 8.79688V13.8883L24.8658 14.2092L24.4024 15.2584L23.5014 14.8943C23.2996 14.8089 23.1612 14.6792 23.0579 14.5324C22.9582 14.3833 22.8843 14.1773 22.8843 13.9019V8.79688H24.0493Z" fill="white"/>
<path d="M26.1632 12.5931C26.1632 12.1595 26.3614 11.7703 26.6735 11.5063L25.8358 10.6005C25.268 11.0875 24.9102 11.7988 24.9102 12.5908C24.909 13.384 25.2668 14.0964 25.8335 14.5834L26.67 13.6776C26.3591 13.4124 26.1632 13.0255 26.1632 12.5931Z" fill="white"/>
<path d="M27.6505 14.0357C27.4863 14.0357 27.3267 14.0084 27.1789 13.9606L26.7788 15.1134C27.0522 15.2021 27.3443 15.2511 27.6493 15.2511C28.9751 15.2522 30.0814 14.3395 30.3384 13.1276L29.1088 12.884C28.9692 13.5429 28.3697 14.0368 27.6505 14.0357Z" fill="white"/>
<path d="M27.6545 9.93311C27.3506 9.93311 27.0585 9.9809 26.7852 10.0685L27.1817 11.2225C27.3307 11.1747 27.4891 11.1485 27.6533 11.1485C28.3737 11.1496 28.9744 11.6458 29.1105 12.3058L30.34 12.0646C30.0878 10.8503 28.9814 9.93424 27.6545 9.93311Z" fill="white"/>
</g>
<defs>
<clipPath id="clip0_12200_59494">
<rect width="36.5714" height="24" fill="white" transform="translate(0.325684)"/>
</clipPath>
</defs>
</svg>
