<svg width="38" height="24" viewBox="0 0 38 24" fill="none" xmlns="http://www.w3.org/2000/svg">
<g clip-path="url(#clip0_12200_59452)">
<path fill-rule="evenodd" clip-rule="evenodd" d="M0.611328 1.71429C0.611328 0.767511 1.37884 0 2.32561 0H35.4685C36.4152 0 37.1828 0.767512 37.1828 1.71429V22.2857C37.1828 23.2325 36.4152 24 35.4685 24H2.32562C1.37884 24 0.611328 23.2325 0.611328 22.2857V1.71429Z" fill="#F4F6F7"/>
<path fill-rule="evenodd" clip-rule="evenodd" d="M14.8966 18.2858C18.3681 18.2858 21.1823 15.4716 21.1823 12.0001C21.1823 8.52857 18.3681 5.71436 14.8966 5.71436C11.425 5.71436 8.61084 8.52857 8.61084 12.0001C8.61084 15.4716 11.425 18.2858 14.8966 18.2858Z" fill="#D8232A"/>
<path fill-rule="evenodd" clip-rule="evenodd" d="M18.8965 16.849C19.9833 17.7466 21.3769 18.2858 22.8965 18.2858C26.368 18.2858 29.1822 15.4716 29.1822 12.0001C29.1822 8.52857 26.368 5.71436 22.8965 5.71436C21.3769 5.71436 19.9833 6.25358 18.8965 7.15111C20.2925 8.30402 21.1822 10.0481 21.1822 12.0001C21.1822 13.952 20.2925 15.6961 18.8965 16.849Z" fill="#ED9F2D"/>
<path fill-rule="evenodd" clip-rule="evenodd" d="M18.8961 7.151C17.5001 8.30391 16.6104 10.048 16.6104 12C16.6104 13.9519 17.5001 15.696 18.8961 16.8489C20.2921 15.696 21.1818 13.9519 21.1818 12C21.1818 10.048 20.2921 8.30391 18.8961 7.151Z" fill="#D8232A"/>
<mask id="mask0_12200_59452" style="mask-type:alpha" maskUnits="userSpaceOnUse" x="16" y="7" width="6" height="10">
<path fill-rule="evenodd" clip-rule="evenodd" d="M18.8961 7.151C17.5001 8.30391 16.6104 10.048 16.6104 12C16.6104 13.9519 17.5001 15.696 18.8961 16.8489C20.2921 15.696 21.1818 13.9519 21.1818 12C21.1818 10.048 20.2921 8.30391 18.8961 7.151Z" fill="white"/>
</mask>
<g mask="url(#mask0_12200_59452)">
<path fill-rule="evenodd" clip-rule="evenodd" d="M15.4678 8H22.3249V9.14286H15.4678V8ZM15.4678 10.2857H22.3249V11.4286H15.4678V10.2857ZM22.3249 12.5714H15.4678V13.7143H22.3249V12.5714ZM15.4678 14.8571H22.3249V16H15.4678V14.8571ZM22.3249 17.1429H15.4678V18.2857H22.3249V17.1429Z" fill="#ED9F2D"/>
</g>
<path fill-rule="evenodd" clip-rule="evenodd" d="M0.611328 1.5C0.611328 0.671573 1.2829 0 2.11133 0H31.1113C31.9398 0 32.6113 0.671573 32.6113 1.5V19.5C32.6113 20.3284 31.9398 21 31.1113 21H2.11133C1.2829 21 0.611328 20.3284 0.611328 19.5V1.5Z" fill="#E5E5E5" fill-opacity="0.01"/>
</g>
<defs>
<clipPath id="clip0_12200_59452">
<rect width="36.5714" height="24" fill="white" transform="translate(0.611328)"/>
</clipPath>
</defs>
</svg>
