<svg width="25" height="24" viewBox="0 0 25 24" fill="none" xmlns="http://www.w3.org/2000/svg">
<path d="M19.6134 18.36C18.6717 18.36 17.7862 17.9934 17.1205 17.3279L13.5207 13.7283C13.2681 13.4749 12.8276 13.4757 12.5749 13.7283L8.96214 17.3411C8.29627 18.0065 7.41073 18.3731 6.4691 18.3731H5.75977L10.3187 22.9322C11.7426 24.3559 14.0511 24.3559 15.4749 22.9322L20.0471 18.36H19.6134Z" fill="#32BCAD"/>
<path d="M6.46898 5.62686C7.41062 5.62686 8.29615 5.9936 8.96191 6.65913L12.5747 10.2725C12.8349 10.5327 13.2598 10.5338 13.5206 10.2722L17.1202 6.67223C17.7861 6.0067 18.6716 5.64007 19.6133 5.64007H20.0468L15.4748 1.06802C14.0509 -0.355829 11.7425 -0.355829 10.3186 1.06802L5.75977 5.62686H6.46898Z" fill="#32BCAD"/>
<path d="M23.8285 9.42221L21.0655 6.65928C21.0047 6.68366 20.9389 6.6989 20.8693 6.6989H19.6132C18.9637 6.6989 18.328 6.96224 17.8691 7.42144L14.2694 11.0211C13.9327 11.358 13.4901 11.5266 13.0479 11.5266C12.6053 11.5266 12.163 11.358 11.8262 11.0215L8.21304 7.40834C7.75408 6.94915 7.11846 6.6858 6.46895 6.6858H4.92432C4.85851 6.6858 4.79688 6.67023 4.73874 6.64833L1.96486 9.42221C0.541009 10.846 0.541009 13.1544 1.96486 14.5784L4.73863 17.3522C4.79677 17.3303 4.85851 17.3147 4.92432 17.3147H6.46895C7.11846 17.3147 7.75408 17.0514 8.21304 16.5922L11.8258 12.9794C12.4788 12.3269 13.6171 12.3266 14.2694 12.9797L17.8691 16.579C18.328 17.0383 18.9637 17.3016 19.6132 17.3016H20.8693C20.939 17.3016 21.0047 17.3167 21.0656 17.3411L23.8285 14.5784C25.2523 13.1544 25.2523 10.846 23.8285 9.42221Z" fill="#32BCAD"/>
</svg>
