<svg width="37" height="24" viewBox="0 0 37 24" fill="none" xmlns="http://www.w3.org/2000/svg">
<g clip-path="url(#clip0_12200_59437)">
<path fill-rule="evenodd" clip-rule="evenodd" d="M0.0400391 1.71429C0.0400391 0.767511 0.807551 0 1.75432 0H34.8972C35.844 0 36.6115 0.767512 36.6115 1.71429V22.2857C36.6115 23.2325 35.844 24 34.8972 24H1.75433C0.807553 24 0.0400391 23.2325 0.0400391 22.2857V1.71429Z" fill="#F4F6F7"/>
<path fill-rule="evenodd" clip-rule="evenodd" d="M0.0400391 1.71429C0.0400391 0.767514 0.807551 0 1.75432 0H34.8972C35.844 0 36.6115 0.767512 36.6115 1.71429V5.71429H0.0400391V1.71429Z" fill="#4095DB"/>
<path fill-rule="evenodd" clip-rule="evenodd" d="M0.0400391 18.2858H36.6115V22.2858C36.6115 23.2325 35.844 24.0001 34.8972 24.0001H1.75433C0.807553 24.0001 0.0400391 23.2325 0.0400391 22.2858V18.2858Z" fill="#F4B662"/>
<path fill-rule="evenodd" clip-rule="evenodd" d="M23.0577 8.32528C22.7019 8.16973 22.1422 8 21.445 8C19.6657 8 18.4132 9.05183 18.4028 10.5578C18.3915 11.6717 19.2966 12.2931 19.979 12.6633C20.6802 13.0428 20.9159 13.2857 20.9131 13.6251C20.9082 14.1441 20.3533 14.382 19.8359 14.382C19.1154 14.382 18.7325 14.2649 18.1407 13.9755L17.9092 13.8522L17.6575 15.5869C18.0772 15.8028 18.8551 15.9902 19.6625 16C21.5535 16 22.7822 14.961 22.7967 13.3528C22.8031 12.4694 22.3236 11.7998 21.285 11.2469C20.6561 10.8877 20.2701 10.6496 20.2745 10.2859C20.2749 9.96369 20.6006 9.61895 21.3055 9.61895C21.8941 9.60842 22.3203 9.75916 22.6523 9.91665L22.814 10.0054L23.0577 8.32528ZM14.7301 15.8862L15.8559 8.13613H17.6556L16.5298 15.8862H14.7301ZM26.1713 10.9722C26.1713 10.9722 25.6035 12.6929 25.4544 13.1384H26.9485C26.8773 12.751 26.532 10.9012 26.532 10.9012L26.4105 10.2327C26.3625 10.3863 26.2955 10.5898 26.2445 10.7445L26.2445 10.7447L26.2444 10.7447C26.199 10.8827 26.1664 10.9818 26.1713 10.9722ZM27.6743 8.14351H26.2835C25.8521 8.14351 25.5292 8.28063 25.3402 8.78594L22.6676 15.8884H24.5578C24.5578 15.8884 24.8662 14.9329 24.9362 14.7232C25.0331 14.7232 25.4902 14.7241 25.9747 14.7251L25.9752 14.7251C26.5214 14.7261 27.1024 14.7273 27.2413 14.7273C27.2952 14.9977 27.4604 15.8884 27.4604 15.8884H29.1308L27.6743 8.14351ZM13.2201 8.14048L11.4586 13.4241L11.27 12.3501C11.2699 12.3497 11.2697 12.3493 11.2696 12.3488C11.2698 12.3494 11.27 12.3499 11.2702 12.3504L10.6395 8.78943C10.5307 8.29831 10.2145 8.15273 9.82365 8.13556H6.92144L6.89746 8.29614C7.60347 8.49683 8.23479 8.78623 8.78808 9.14617L10.3885 15.8772L12.2931 15.876L15.1273 8.14048H13.2201Z" fill="#0071CE"/>
<path fill-rule="evenodd" clip-rule="evenodd" d="M0.0400391 1.5C0.0400391 0.671573 0.711612 0 1.54004 0H30.54C31.3685 0 32.04 0.671573 32.04 1.5V19.5C32.04 20.3284 31.3685 21 30.54 21H1.54004C0.711612 21 0.0400391 20.3284 0.0400391 19.5V1.5Z" fill="#E5E5E5" fill-opacity="0.01"/>
</g>
<defs>
<clipPath id="clip0_12200_59437">
<rect width="36.5714" height="24" fill="white" transform="translate(0.0400391)"/>
</clipPath>
</defs>
</svg>
